<svg width="570" height="375" viewBox="0 0 570 375" fill="none" xmlns="http://www.w3.org/2000/svg">
<g clip-path="url(#clip0_65_57)">
<path d="M292.894 346.479L506.288 245.564C507.826 244.866 509.121 243.82 510.037 242.535C510.954 241.251 511.458 239.775 511.497 238.262C511.537 236.749 511.11 235.255 510.261 233.936C509.412 232.616 508.173 231.52 506.673 230.762L299.806 122.819C298.223 121.999 296.421 121.555 294.581 121.534C292.74 121.512 290.925 121.912 289.318 122.694L63.5835 233.038C62.0476 233.762 60.7646 234.835 59.8704 236.143C58.9761 237.452 58.504 238.947 58.504 240.47C58.504 241.994 58.9761 243.489 59.8704 244.797C60.7646 246.106 62.0476 247.179 63.5835 247.902L264.865 346.305C269.144 348.388 273.955 349.495 278.854 349.525C283.753 349.556 288.582 348.508 292.894 346.479V346.479Z" fill="#00275E"/>
<path d="M256.771 196.593C256.771 196.593 213.608 216.706 203.39 264.695C203.39 264.695 245.428 272.469 301.715 231.832" fill="#EB773A"/>
<path d="M256.229 202.713C256.229 202.713 237.818 217.129 232.631 227.304C227.444 237.479 220.676 252.368 220.676 252.368C220.676 252.368 253.094 254.781 283.575 238.499C314.056 222.216 285 191.766 256.229 202.713Z" fill="#FFAE46"/>
<path d="M274.526 197.65C273.415 199.28 254.448 208.609 250.9 222.067L257.084 217.975C257.084 217.975 246.568 230.837 242.107 238.238C242.107 238.238 267.758 229.319 266.96 229.854L259.706 234.655C259.706 234.655 279.215 234.295 292.481 223.946C305.748 213.596 287.508 195.548 287.508 195.548L274.526 197.65Z" fill="#FAD374"/>
<path d="M331.769 197.526C331.769 197.526 328.42 216.495 321.252 221.159C314.084 225.824 290.814 241.285 290.814 241.285L286.952 236.832C286.952 236.832 302.998 211.867 305.834 200.847C308.669 189.826 331.769 197.526 331.769 197.526Z" fill="#68E1FD"/>
<path opacity="0.61" d="M331.769 197.526C331.769 197.526 328.42 216.495 321.252 221.159C314.084 225.824 290.814 241.285 290.814 241.285L286.952 236.832C286.952 236.832 302.998 211.867 305.834 200.847C308.669 189.826 331.769 197.526 331.769 197.526Z" fill="#363636"/>
<path d="M308.598 170.832C308.598 170.832 286.767 168.519 279.614 173.32C272.46 178.121 249.176 193.446 249.176 193.446L253.037 197.899C253.037 197.899 284.914 191.169 297.839 191.779C310.764 192.388 308.598 170.832 308.598 170.832Z" fill="#68E1FD"/>
<path opacity="0.61" d="M308.598 170.832C308.598 170.832 286.767 168.519 279.614 173.32C272.46 178.121 249.176 193.446 249.176 193.446L253.037 197.899C253.037 197.899 284.914 191.169 297.839 191.779C310.764 192.388 308.598 170.832 308.598 170.832Z" fill="#363636"/>
<path d="M413.407 138.989C419.178 131.12 423.838 122.671 427.286 113.825C427.286 113.825 414.604 113.95 395.651 118.876C397.162 127.297 404.871 134.013 413.407 138.989Z" fill="#68E1FD"/>
<path d="M362.565 173.176C368.587 169.193 369.266 161.122 364.08 155.148C358.895 149.174 349.81 147.56 343.788 151.543C337.766 155.526 337.088 163.597 342.273 169.571C347.458 175.545 356.544 177.159 362.565 173.176Z" fill="#68E1FD"/>
<path d="M471.575 84.0471C471.575 84.0471 352.16 109.969 291.484 186.716C291.484 186.716 277.234 199.988 284.116 207.365C290.999 214.741 313.942 208.87 313.942 208.87C313.942 208.87 389.338 190.187 471.575 84.0471Z" fill="#68E1FD"/>
<path d="M291.484 186.716C291.484 186.716 276.436 185.124 271.534 188.396C266.632 191.667 250.558 202.265 250.558 202.265L253.222 205.337C253.222 205.337 275.196 200.697 284.088 201.12C292.98 201.543 291.484 186.716 291.484 186.716Z" fill="#68E1FD"/>
<path d="M309.61 207.601C309.61 207.601 307.301 220.674 302.356 223.933C297.412 227.192 281.38 237.802 281.38 237.802L278.73 234.767C278.73 234.767 289.788 217.564 291.74 209.964C293.692 202.364 309.61 207.601 309.61 207.601Z" fill="#68E1FD"/>
<path opacity="0.29" d="M291.484 186.716C291.484 186.716 276.436 185.124 271.534 188.396C266.632 191.667 250.558 202.265 250.558 202.265L253.222 205.337C253.222 205.337 275.196 200.697 284.088 201.12C292.98 201.543 291.484 186.716 291.484 186.716Z" fill="#363636"/>
<path opacity="0.29" d="M309.61 207.601C309.61 207.601 307.301 220.674 302.356 223.933C297.412 227.192 281.38 237.802 281.38 237.802L278.73 234.767C278.73 234.767 289.788 217.564 291.74 209.964C293.692 202.364 309.61 207.601 309.61 207.601Z" fill="#363636"/>
<path d="M413.563 102.743C413.563 102.743 413.15 120.368 434.525 126.899L422.128 139.188C422.128 139.188 395.281 126.015 399.442 108.713L413.563 102.743Z" fill="#68E1FD"/>
<path d="M336.884 143.604C336.884 143.604 337.126 173.457 369.018 181.952L345.334 196.083C345.334 196.083 311.134 185.721 317.476 159.165L336.884 143.604Z" fill="#68E1FD"/>
<path d="M394.529 139.3C396.649 137.897 397.065 135.26 395.459 133.41C393.853 131.559 390.832 131.195 388.711 132.598C386.591 134 386.175 136.637 387.781 138.488C389.387 140.338 392.408 140.702 394.529 139.3Z" fill="#68E1FD"/>
<path d="M377.038 161.321C382.591 157.686 383.716 150.809 379.552 145.962C375.387 141.115 367.509 140.132 361.956 143.768C356.403 147.403 355.277 154.28 359.442 159.127C363.607 163.975 371.485 164.957 377.038 161.321Z" fill="#68E1FD"/>
<path opacity="0.61" d="M413.563 102.743C413.563 102.743 413.15 120.368 434.525 126.899L422.128 139.188C422.128 139.188 395.281 126.015 399.442 108.713L413.563 102.743Z" fill="#606060"/>
<path opacity="0.61" d="M336.884 143.604C336.884 143.604 337.126 173.457 369.018 181.952L345.334 196.083C345.334 196.083 311.134 185.721 317.476 159.165L336.884 143.604Z" fill="#606060"/>
<path opacity="0.61" d="M394.529 139.3C396.649 137.897 397.065 135.26 395.459 133.41C393.853 131.559 390.832 131.195 388.711 132.598C386.591 134 386.175 136.637 387.781 138.488C389.387 140.338 392.408 140.702 394.529 139.3Z" fill="#606060"/>
<path opacity="0.61" d="M377.038 161.321C382.591 157.686 383.716 150.809 379.552 145.962C375.387 141.115 367.509 140.132 361.956 143.768C356.403 147.403 355.277 154.28 359.442 159.127C363.607 163.975 371.485 164.957 377.038 161.321Z" fill="#606060"/>
<path d="M436.477 216.022C436.1 216.022 435.737 216.153 435.47 216.386C435.203 216.62 435.052 216.936 435.052 217.266C435.052 217.596 435.203 217.912 435.47 218.145C435.737 218.379 436.1 218.51 436.477 218.51C436.855 218.51 437.218 218.379 437.485 218.145C437.752 217.912 437.902 217.596 437.902 217.266C437.902 216.936 437.752 216.62 437.485 216.386C437.218 216.153 436.855 216.022 436.477 216.022Z" fill="white"/>
<path d="M364.287 265.565V266.361C364.287 266.691 364.437 267.008 364.704 267.241C364.972 267.474 365.334 267.605 365.712 267.605C366.09 267.605 366.452 267.474 366.72 267.241C366.987 267.008 367.137 266.691 367.137 266.361V265.565C367.137 265.236 366.987 264.919 366.72 264.686C366.452 264.453 366.09 264.322 365.712 264.322C365.334 264.322 364.972 264.453 364.704 264.686C364.437 264.919 364.287 265.236 364.287 265.565Z" fill="white"/>
<path d="M264.48 285.368V286.164C264.48 286.494 264.63 286.81 264.897 287.043C265.165 287.277 265.527 287.408 265.905 287.408C266.283 287.408 266.645 287.277 266.913 287.043C267.18 286.81 267.33 286.494 267.33 286.164V285.368C267.33 285.038 267.18 284.722 266.913 284.488C266.645 284.255 266.283 284.124 265.905 284.124C265.527 284.124 265.165 284.255 264.897 284.488C264.63 284.722 264.48 285.038 264.48 285.368Z" fill="white"/>
<path d="M357.547 224.729C357.169 224.729 356.806 224.86 356.539 225.093C356.272 225.327 356.122 225.643 356.122 225.973C356.122 226.303 356.272 226.619 356.539 226.853C356.806 227.086 357.169 227.217 357.547 227.217C357.925 227.217 358.287 227.086 358.554 226.853C358.822 226.619 358.972 226.303 358.972 225.973C358.972 225.643 358.822 225.327 358.554 225.093C358.287 224.86 357.925 224.729 357.547 224.729Z" fill="white"/>
<path d="M186.974 222.328C186.596 222.328 186.234 222.459 185.967 222.693C185.699 222.926 185.549 223.242 185.549 223.572C185.549 223.902 185.699 224.219 185.967 224.452C186.234 224.685 186.596 224.816 186.974 224.816C187.352 224.816 187.715 224.685 187.982 224.452C188.249 224.219 188.399 223.902 188.399 223.572C188.399 223.242 188.249 222.926 187.982 222.693C187.715 222.459 187.352 222.328 186.974 222.328Z" fill="white"/>
<path d="M122.935 225.973V226.769C122.935 227.099 123.085 227.415 123.352 227.649C123.619 227.882 123.982 228.013 124.36 228.013C124.738 228.013 125.1 227.882 125.367 227.649C125.635 227.415 125.785 227.099 125.785 226.769V225.973C125.785 225.643 125.635 225.327 125.367 225.093C125.1 224.86 124.738 224.729 124.36 224.729C123.982 224.729 123.619 224.86 123.352 225.093C123.085 225.327 122.935 225.643 122.935 225.973Z" fill="white"/>
<path d="M153.401 265.118C153.023 265.118 152.661 265.249 152.394 265.482C152.126 265.715 151.976 266.032 151.976 266.362C151.976 266.691 152.126 267.008 152.394 267.241C152.661 267.474 153.023 267.605 153.401 267.605C153.779 267.605 154.142 267.474 154.409 267.241C154.676 267.008 154.826 266.691 154.826 266.362C154.826 266.032 154.676 265.715 154.409 265.482C154.142 265.249 153.779 265.118 153.401 265.118Z" fill="white"/>
<path d="M200.583 194.627C200.205 194.627 199.843 194.758 199.575 194.992C199.308 195.225 199.158 195.541 199.158 195.871C199.158 196.201 199.308 196.518 199.575 196.751C199.843 196.984 200.205 197.115 200.583 197.115C200.961 197.115 201.323 196.984 201.591 196.751C201.858 196.518 202.008 196.201 202.008 195.871C202.008 195.541 201.858 195.225 201.591 194.992C201.323 194.758 200.961 194.627 200.583 194.627Z" fill="white"/>
<path d="M270.436 155.035C270.059 155.035 269.696 155.166 269.429 155.399C269.162 155.633 269.011 155.949 269.011 156.279C269.011 156.609 269.162 156.925 269.429 157.158C269.696 157.392 270.059 157.523 270.436 157.523C270.814 157.523 271.177 157.392 271.444 157.158C271.711 156.925 271.861 156.609 271.861 156.279C271.861 155.949 271.711 155.633 271.444 155.399C271.177 155.166 270.814 155.035 270.436 155.035Z" fill="white"/>
<path d="M313.087 310.258C312.709 310.258 312.346 310.389 312.079 310.622C311.812 310.855 311.662 311.172 311.662 311.502C311.662 311.831 311.812 312.148 312.079 312.381C312.346 312.614 312.709 312.745 313.087 312.745C313.465 312.745 313.827 312.614 314.094 312.381C314.362 312.148 314.512 311.831 314.512 311.502C314.512 311.172 314.362 310.855 314.094 310.622C313.827 310.389 313.465 310.258 313.087 310.258Z" fill="white"/>
<path d="M407.436 240.34C398.273 240.34 398.245 252.778 407.436 252.778C416.627 252.778 416.627 240.34 407.436 240.34Z" fill="#FFAE46"/>
<path d="M151.591 233.212C142.429 233.212 142.4 245.651 151.591 245.651C160.783 245.651 160.768 233.212 151.591 233.212Z" fill="#FFAE46"/>
<path d="M288.178 315.022C286.842 313.856 285.03 313.201 283.14 313.201C281.251 313.201 279.439 313.856 278.103 315.022C276.793 316.205 276.049 317.78 276.023 319.425V320.221C276.043 321.868 276.788 323.444 278.103 324.625C279.439 325.79 281.251 326.445 283.14 326.445C285.03 326.445 286.842 325.79 288.178 324.625C289.488 323.441 290.232 321.867 290.258 320.221V319.425C290.237 317.779 289.493 316.202 288.178 315.022V315.022Z" fill="#00AEE1"/>
<path d="M157.819 148.617C174.975 148.617 188.884 136.476 188.884 121.5C188.884 106.524 174.975 94.3837 157.819 94.3837C140.662 94.3837 126.754 106.524 126.754 121.5C126.754 136.476 140.662 148.617 157.819 148.617Z" fill="#68E1FD"/>
<path d="M183.084 106.586C186.362 105.797 189.693 105.191 193.059 104.77C194.749 104.546 196.452 104.405 198.16 104.347C199.934 104.26 201.712 104.352 203.461 104.621C204.473 104.77 205.441 105.091 206.311 105.566C206.836 105.868 207.283 106.262 207.622 106.723C207.979 107.226 208.185 107.799 208.221 108.39C208.234 109.366 207.974 110.331 207.466 111.201C207.062 111.941 206.586 112.648 206.041 113.315C203.88 115.738 201.381 117.915 198.602 119.796C193.268 123.503 187.602 126.83 181.659 129.747C175.779 132.714 169.724 135.409 163.519 137.82C157.312 140.271 150.94 142.389 144.438 144.163C141.162 145.077 137.832 145.836 134.463 146.44C131.011 147.101 127.504 147.521 123.975 147.696C122.167 147.777 120.355 147.715 118.56 147.509C116.64 147.32 114.771 146.849 113.031 146.116C112.075 145.715 111.199 145.181 110.438 144.537C109.583 143.799 108.968 142.876 108.656 141.862C108.381 140.894 108.381 139.882 108.656 138.914C108.891 138.073 109.25 137.262 109.725 136.501C111.603 133.854 114.017 131.528 116.85 129.635C119.466 127.744 122.265 126.054 125.215 124.585C122.77 126.556 120.44 128.631 118.232 130.804C116.024 132.86 114.193 135.201 112.803 137.745C112.243 138.715 112.112 139.83 112.433 140.88C112.616 141.269 112.911 141.612 113.288 141.875C113.775 142.206 114.312 142.478 114.884 142.683C117.718 143.503 120.729 143.754 123.69 143.417C130.144 142.762 136.496 141.486 142.628 139.611C148.898 137.845 155.011 135.631 161.153 133.392C173.306 128.847 184.939 123.308 195.895 116.848C198.526 115.261 200.958 113.435 203.148 111.4C203.634 110.923 204.073 110.412 204.459 109.87C204.762 109.454 204.966 108.988 205.057 108.502C205.07 108.336 205.032 108.17 204.947 108.021C204.862 107.872 204.733 107.746 204.573 107.656C204.035 107.314 203.432 107.057 202.792 106.897C199.64 106.236 196.397 105.968 193.159 106.101C189.782 106.113 186.433 106.288 183.084 106.586Z" fill="#8CC63F"/>
<path d="M58.1818 0.656738H545.455V180.604" stroke="black"/>
</g>
<defs>
<clipPath id="clip0_65_57">
<rect width="570" height="375" fill="white"/>
</clipPath>
</defs>
</svg>
