<svg width="700" height="370" viewBox="0 0 700 370" fill="none" xmlns="http://www.w3.org/2000/svg">
<path d="M243.64 123.716C217.731 89.1848 184.862 168.11 140.885 168.495C54.2687 169.254 36.8773 78.8663 14.8542 -4H704V327.786C673.018 351.968 640.336 370 640.336 370C640.336 370 636.153 305.341 605.461 300.411C575.908 295.664 576.809 340.342 548.791 350.636C473.476 378.306 581.317 158.262 500.838 155.787C441.351 153.958 437.531 293.632 390.61 258.053C353.223 229.703 421.592 174.943 390.61 140.054C345.706 89.4869 248.109 267.898 227.448 204.197C217.541 173.653 263.056 149.594 243.64 123.716Z" fill="#FBFBFB"/>
</svg>
